# xmcd CD database file
#
# Track frame offsets:
#	150
#	19791
#	37415
#	52835
#	65865
#	88005
#	103899
#	129379
#	143389
#	162819
#	181531
#
# Disc length: 2697 seconds
#
# Revision: 0
# Processed by: cddbd v1.5.2PL0 Copyright (c) Steve Scherf et al.
# Submitted via: Feurio! 1.68 - http://www.feurio.com
#
DISCID=8e0a870b
DTITLE=GOOD GRAVY - Traditional Blues Grooves from the 20´s and 30´s
DYEAR=1900
DGENRE=Blues
TTITLE0=Stranger Blues
TTITLE1=Ain' t no tellin'
TTITLE2=Lonely Tramp
TTITLE3=Step it up
TTITLE4=Lead Pencil Blues
TTITLE5=Good Jelly
TTITLE6=Alabama Blues
TTITLE7=Rag Mama Rag
TTITLE8=Kansas City Blues
TTITLE9=Driving that Thing
TTITLE10=Walk on
EXTD=
EXTT0=
EXTT1=
EXTT2=
EXTT3=
EXTT4=
EXTT5=
EXTT6=
EXTT7=
EXTT8=
EXTT9=
EXTT10=
PLAYORDER=
